<svg xmlns="http://www.w3.org/2000/svg" xmlns:xlink="http://www.w3.org/1999/xlink" contentStyleType="text/css" data-diagram-type="CLASS" height="1201px" preserveAspectRatio="none" style="width:3007px;height:1201px;background:#FFFFFF;" version="1.1" viewBox="0 0 3007 1201" width="3007px" zoomAndPan="magnify"><defs/><g><!--class MainScreen--><g class="entity" data-entity="MainScreen" data-source-line="10" data-uid="ent0002" id="entity_MainScreen"><rect fill="#FFC0CB" height="259.8594" rx="2.5" ry="2.5" style="stroke:#FF69B4;stroke-width:0.5;" width="246.7324" x="270.5" y="7"/><ellipse cx="348.686" cy="23" fill="#ADD1B2" rx="11" ry="11" style="stroke:#181818;stroke-width:1;"/><path d="M351.6548,28.6406 Q351.0767,28.9375 350.436,29.0781 Q349.7954,29.2344 349.0923,29.2344 Q346.5923,29.2344 345.2642,27.5938 Q343.9517,25.9375 343.9517,22.8125 Q343.9517,19.6875 345.2642,18.0313 Q346.5923,16.375 349.0923,16.375 Q349.7954,16.375 350.436,16.5313 Q351.0923,16.6875 351.6548,16.9844 L351.6548,19.7031 Q351.0298,19.125 350.436,18.8594 Q349.8423,18.5781 349.2173,18.5781 Q347.8735,18.5781 347.186,19.6563 Q346.4985,20.7188 346.4985,22.8125 Q346.4985,24.9063 347.186,25.9844 Q347.8735,27.0469 349.2173,27.0469 Q349.8423,27.0469 350.436,26.7813 Q351.0298,26.5 351.6548,25.9219 L351.6548,28.6406 Z " fill="#000000"/><text fill="#000000" font-family="sans-serif" font-size="14" lengthAdjust="spacing" textLength="81.8604" x="369.186" y="27.8467">MainScreen</text><line style="stroke:#FF69B4;stroke-width:0.5;" x1="271.5" x2="516.2324" y1="39" y2="39"/><text fill="#000000" font-family="sans-serif" font-size="14" lengthAdjust="spacing" textLength="153.5967" x="276.5" y="55.9951">-logo        : Texture2D</text><text fill="#000000" font-family="sans-serif" font-size="14" lengthAdjust="spacing" textLength="142.5703" x="276.5" y="72.292">-clickSound  : Sound</text><text fill="#000000" font-family="sans-serif" font-size="14" lengthAdjust="spacing" textLength="170.0234" x="276.5" y="88.5889">-playButton  : Rectangle</text><text fill="#000000" font-family="sans-serif" font-size="14" lengthAdjust="spacing" textLength="131.7627" x="276.5" y="104.8857">-startGame   : bool</text><text fill="#000000" font-family="sans-serif" font-size="14" lengthAdjust="spacing" textLength="186.7783" x="276.5" y="121.1826">+background  : Texture2D</text><line style="stroke:#FF69B4;stroke-width:0.5;" x1="271.5" x2="516.2324" y1="128.4844" y2="128.4844"/><text fill="#000000" font-family="sans-serif" font-size="14" lengthAdjust="spacing" textLength="104.5146" x="276.5" y="145.4795">+MainScreen()</text><text fill="#000000" font-family="sans-serif" font-size="14" lengthAdjust="spacing" textLength="116.2451" x="276.5" y="161.7764">+~MainScreen()</text><text fill="#000000" font-family="sans-serif" font-size="14" lengthAdjust="spacing" textLength="56.4854" x="276.5" y="178.0732">+Load()</text><text fill="#000000" font-family="sans-serif" font-size="14" lengthAdjust="spacing" textLength="71.6953" x="276.5" y="194.3701">+Unload()</text><text fill="#000000" font-family="sans-serif" font-size="14" lengthAdjust="spacing" textLength="59.2197" x="276.5" y="210.667">+Draw()</text><text fill="#000000" font-family="sans-serif" font-size="14" lengthAdjust="spacing" textLength="220.5889" x="276.5" y="226.9639">+HandleClick(mouse : Vector2)</text><text fill="#000000" font-family="sans-serif" font-size="14" lengthAdjust="spacing" textLength="190.0322" x="276.5" y="243.2607">+ShouldStartGame() : bool</text><text fill="#000000" font-family="sans-serif" font-size="14" lengthAdjust="spacing" textLength="234.7324" x="276.5" y="259.5576">+SetBackground(bg : Texture2D)</text></g><!--class Screen1--><g class="entity" data-entity="Screen1" data-source-line="26" data-uid="ent0003" id="entity_Screen1"><rect fill="#FFC0CB" height="129.4844" rx="2.5" ry="2.5" style="stroke:#FF69B4;stroke-width:0.5;" width="228.3369" x="7" y="72.5"/><ellipse cx="88.2451" cy="88.5" fill="#ADD1B2" rx="11" ry="11" style="stroke:#181818;stroke-width:1;"/><path d="M91.2139,94.1406 Q90.6357,94.4375 89.9951,94.5781 Q89.3545,94.7344 88.6514,94.7344 Q86.1514,94.7344 84.8232,93.0938 Q83.5107,91.4375 83.5107,88.3125 Q83.5107,85.1875 84.8232,83.5313 Q86.1514,81.875 88.6514,81.875 Q89.3545,81.875 89.9951,82.0313 Q90.6514,82.1875 91.2139,82.4844 L91.2139,85.2031 Q90.5889,84.625 89.9951,84.3594 Q89.4014,84.0781 88.7764,84.0781 Q87.4326,84.0781 86.7451,85.1563 Q86.0576,86.2188 86.0576,88.3125 Q86.0576,90.4063 86.7451,91.4844 Q87.4326,92.5469 88.7764,92.5469 Q89.4014,92.5469 89.9951,92.2813 Q90.5889,92 91.2139,91.4219 L91.2139,94.1406 Z " fill="#000000"/><text fill="#000000" font-family="sans-serif" font-size="14" lengthAdjust="spacing" textLength="57.3467" x="108.7451" y="93.3467">Screen1</text><line style="stroke:#FF69B4;stroke-width:0.5;" x1="8" x2="234.3369" y1="104.5" y2="104.5"/><text fill="#000000" font-family="sans-serif" font-size="14" lengthAdjust="spacing" textLength="216.3369" x="13" y="121.4951">+levelBackground : Texture2D</text><text fill="#000000" font-family="sans-serif" font-size="14" lengthAdjust="spacing" textLength="196.3555" x="13" y="137.792">+barbieSide      : Texture2D</text><line style="stroke:#FF69B4;stroke-width:0.5;" x1="8" x2="234.3369" y1="145.0938" y2="145.0938"/><text fill="#000000" font-family="sans-serif" font-size="14" lengthAdjust="spacing" textLength="56.4854" x="13" y="162.0889">+Load()</text><text fill="#000000" font-family="sans-serif" font-size="14" lengthAdjust="spacing" textLength="71.6953" x="13" y="178.3857">+Unload()</text><text fill="#000000" font-family="sans-serif" font-size="14" lengthAdjust="spacing" textLength="59.2197" x="13" y="194.6826">+Draw()</text></g><!--class Screen2--><g class="entity" data-entity="Screen2" data-source-line="34" data-uid="ent0004" id="entity_Screen2"><rect fill="#FFC0CB" height="129.4844" rx="2.5" ry="2.5" style="stroke:#FF69B4;stroke-width:0.5;" width="422.9834" x="552.5" y="72.5"/><ellipse cx="731.0684" cy="88.5" fill="#ADD1B2" rx="11" ry="11" style="stroke:#181818;stroke-width:1;"/><path d="M734.0371,94.1406 Q733.459,94.4375 732.8184,94.5781 Q732.1777,94.7344 731.4746,94.7344 Q728.9746,94.7344 727.6465,93.0938 Q726.334,91.4375 726.334,88.3125 Q726.334,85.1875 727.6465,83.5313 Q728.9746,81.875 731.4746,81.875 Q732.1777,81.875 732.8184,82.0313 Q733.4746,82.1875 734.0371,82.4844 L734.0371,85.2031 Q733.4121,84.625 732.8184,84.3594 Q732.2246,84.0781 731.5996,84.0781 Q730.2559,84.0781 729.5684,85.1563 Q728.8809,86.2188 728.8809,88.3125 Q728.8809,90.4063 729.5684,91.4844 Q730.2559,92.5469 731.5996,92.5469 Q732.2246,92.5469 732.8184,92.2813 Q733.4121,92 734.0371,91.4219 L734.0371,94.1406 Z " fill="#000000"/><text fill="#000000" font-family="sans-serif" font-size="14" lengthAdjust="spacing" textLength="57.3467" x="751.5684" y="93.3467">Screen2</text><line style="stroke:#FF69B4;stroke-width:0.5;" x1="553.5" x2="974.4834" y1="104.5" y2="104.5"/><line style="stroke:#FF69B4;stroke-width:0.5;" x1="553.5" x2="974.4834" y1="112.5" y2="112.5"/><text fill="#000000" font-family="sans-serif" font-size="14" lengthAdjust="spacing" textLength="410.9834" x="558.5" y="129.4951">+Screen2(gameplay : GamePlay*, carryOverMoney : float)</text><text fill="#000000" font-family="sans-serif" font-size="14" lengthAdjust="spacing" textLength="56.4854" x="558.5" y="145.792">+Load()</text><text fill="#000000" font-family="sans-serif" font-size="14" lengthAdjust="spacing" textLength="71.6953" x="558.5" y="162.0889">+Unload()</text><text fill="#000000" font-family="sans-serif" font-size="14" lengthAdjust="spacing" textLength="59.2197" x="558.5" y="178.3857">+Draw()</text><text fill="#000000" font-family="sans-serif" font-size="14" lengthAdjust="spacing" textLength="177.1055" x="558.5" y="194.6826">+ShouldContinue() : bool</text></g><!--class Screen4--><g class="entity" data-entity="Screen4" data-source-line="42" data-uid="ent0005" id="entity_Screen4"><rect fill="#FFC0CB" height="145.7813" rx="2.5" ry="2.5" style="stroke:#FF69B4;stroke-width:0.5;" width="425.6836" x="1011" y="64"/><ellipse cx="1190.9185" cy="80" fill="#ADD1B2" rx="11" ry="11" style="stroke:#181818;stroke-width:1;"/><path d="M1193.8872,85.6406 Q1193.3091,85.9375 1192.6685,86.0781 Q1192.0278,86.2344 1191.3247,86.2344 Q1188.8247,86.2344 1187.4966,84.5938 Q1186.1841,82.9375 1186.1841,79.8125 Q1186.1841,76.6875 1187.4966,75.0313 Q1188.8247,73.375 1191.3247,73.375 Q1192.0278,73.375 1192.6685,73.5313 Q1193.3247,73.6875 1193.8872,73.9844 L1193.8872,76.7031 Q1193.2622,76.125 1192.6685,75.8594 Q1192.0747,75.5781 1191.4497,75.5781 Q1190.106,75.5781 1189.4185,76.6563 Q1188.731,77.7188 1188.731,79.8125 Q1188.731,81.9063 1189.4185,82.9844 Q1190.106,84.0469 1191.4497,84.0469 Q1192.0747,84.0469 1192.6685,83.7813 Q1193.2622,83.5 1193.8872,82.9219 L1193.8872,85.6406 Z " fill="#000000"/><text fill="#000000" font-family="sans-serif" font-size="14" lengthAdjust="spacing" textLength="57.3467" x="1211.4185" y="84.8467">Screen4</text><line style="stroke:#FF69B4;stroke-width:0.5;" x1="1012" x2="1435.6836" y1="96" y2="96"/><line style="stroke:#FF69B4;stroke-width:0.5;" x1="1012" x2="1435.6836" y1="104" y2="104"/><text fill="#000000" font-family="sans-serif" font-size="14" lengthAdjust="spacing" textLength="413.6836" x="1017" y="120.9951">+Screen4(game : GamePlay*, money : float&amp;, score : int&amp;)</text><text fill="#000000" font-family="sans-serif" font-size="14" lengthAdjust="spacing" textLength="56.4854" x="1017" y="137.292">+Load()</text><text fill="#000000" font-family="sans-serif" font-size="14" lengthAdjust="spacing" textLength="71.6953" x="1017" y="153.5889">+Unload()</text><text fill="#000000" font-family="sans-serif" font-size="14" lengthAdjust="spacing" textLength="59.2197" x="1017" y="169.8857">+Draw()</text><text fill="#000000" font-family="sans-serif" font-size="14" lengthAdjust="spacing" textLength="177.1055" x="1017" y="186.1826">+ShouldContinue() : bool</text><text fill="#000000" font-family="sans-serif" font-size="14" lengthAdjust="spacing" textLength="266.9502" x="1017" y="202.4795">+GetSelectedShoes() : vector&lt;Shoe&gt;</text></g><!--class GameManager--><g class="entity" data-entity="GameManager" data-source-line="52" data-uid="ent0006" id="entity_GameManager"><rect fill="#FFC0CB" height="194.6719" rx="2.5" ry="2.5" style="stroke:#FF69B4;stroke-width:0.5;" width="232.5889" x="1764.5" y="39.5"/><ellipse cx="1825.022" cy="55.5" fill="#ADD1B2" rx="11" ry="11" style="stroke:#181818;stroke-width:1;"/><path d="M1827.9907,61.1406 Q1827.4126,61.4375 1826.772,61.5781 Q1826.1313,61.7344 1825.4282,61.7344 Q1822.9282,61.7344 1821.6001,60.0938 Q1820.2876,58.4375 1820.2876,55.3125 Q1820.2876,52.1875 1821.6001,50.5313 Q1822.9282,48.875 1825.4282,48.875 Q1826.1313,48.875 1826.772,49.0313 Q1827.4282,49.1875 1827.9907,49.4844 L1827.9907,52.2031 Q1827.3657,51.625 1826.772,51.3594 Q1826.1782,51.0781 1825.5532,51.0781 Q1824.2095,51.0781 1823.522,52.1563 Q1822.8345,53.2188 1822.8345,55.3125 Q1822.8345,57.4063 1823.522,58.4844 Q1824.2095,59.5469 1825.5532,59.5469 Q1826.1782,59.5469 1826.772,59.2813 Q1827.3657,59 1827.9907,58.4219 L1827.9907,61.1406 Z " fill="#000000"/><text fill="#000000" font-family="sans-serif" font-size="14" lengthAdjust="spacing" textLength="103.0449" x="1845.522" y="60.3467">GameManager</text><line style="stroke:#FF69B4;stroke-width:0.5;" x1="1765.5" x2="1996.0889" y1="71.5" y2="71.5"/><text fill="#000000" font-family="sans-serif" font-size="14" lengthAdjust="spacing" textLength="142.4746" x="1770.5" y="88.4951">+logo    : Texture2D</text><text fill="#000000" font-family="sans-serif" font-size="14" lengthAdjust="spacing" textLength="170.4883" x="1770.5" y="104.792">+catalog : OutfitCatalog</text><text fill="#000000" font-family="sans-serif" font-size="14" lengthAdjust="spacing" textLength="148.0459" x="1770.5" y="121.0889">+session : GamePlay</text><line style="stroke:#FF69B4;stroke-width:0.5;" x1="1765.5" x2="1996.0889" y1="128.3906" y2="128.3906"/><text fill="#000000" font-family="sans-serif" font-size="14" lengthAdjust="spacing" textLength="102.0469" x="1770.5" y="145.3857">+LoadAssets()</text><text fill="#000000" font-family="sans-serif" font-size="14" lengthAdjust="spacing" textLength="117.2568" x="1770.5" y="161.6826">+UnloadAssets()</text><text fill="#000000" font-family="sans-serif" font-size="14" lengthAdjust="spacing" textLength="73.5957" x="1770.5" y="177.9795">+DrawUI()</text><text fill="#000000" font-family="sans-serif" font-size="14" lengthAdjust="spacing" textLength="220.5889" x="1770.5" y="194.2764">+HandleClick(mouse : Vector2)</text><text fill="#000000" font-family="sans-serif" font-size="14" lengthAdjust="spacing" textLength="174.7266" x="1770.5" y="210.5732">+TryEnterFashionShow()</text><text fill="#000000" font-family="sans-serif" font-size="14" lengthAdjust="spacing" textLength="182.2734" x="1770.5" y="226.8701">+IsLevelComplete() : bool</text></g><!--class GamePlay--><g class="entity" data-entity="GamePlay" data-source-line="64" data-uid="ent0007" id="entity_GamePlay"><rect fill="#FFC0CB" height="243.5625" rx="2.5" ry="2.5" style="stroke:#FF69B4;stroke-width:0.5;" width="229.6631" x="1332" y="344"/><ellipse cx="1407.144" cy="360" fill="#ADD1B2" rx="11" ry="11" style="stroke:#181818;stroke-width:1;"/><path d="M1410.1128,365.6406 Q1409.5347,365.9375 1408.894,366.0781 Q1408.2534,366.2344 1407.5503,366.2344 Q1405.0503,366.2344 1403.7222,364.5938 Q1402.4097,362.9375 1402.4097,359.8125 Q1402.4097,356.6875 1403.7222,355.0313 Q1405.0503,353.375 1407.5503,353.375 Q1408.2534,353.375 1408.894,353.5313 Q1409.5503,353.6875 1410.1128,353.9844 L1410.1128,356.7031 Q1409.4878,356.125 1408.894,355.8594 Q1408.3003,355.5781 1407.6753,355.5781 Q1406.3315,355.5781 1405.644,356.6563 Q1404.9565,357.7188 1404.9565,359.8125 Q1404.9565,361.9063 1405.644,362.9844 Q1406.3315,364.0469 1407.6753,364.0469 Q1408.3003,364.0469 1408.894,363.7813 Q1409.4878,363.5 1410.1128,362.9219 L1410.1128,365.6406 Z " fill="#000000"/><text fill="#000000" font-family="sans-serif" font-size="14" lengthAdjust="spacing" textLength="70.875" x="1427.644" y="364.8467">GamePlay</text><line style="stroke:#FF69B4;stroke-width:0.5;" x1="1333" x2="1560.6631" y1="376" y2="376"/><text fill="#000000" font-family="sans-serif" font-size="14" lengthAdjust="spacing" textLength="120.3467" x="1338" y="392.9951">-money      : float</text><text fill="#000000" font-family="sans-serif" font-size="14" lengthAdjust="spacing" textLength="97.0977" x="1338" y="409.292">-score      : int</text><text fill="#000000" font-family="sans-serif" font-size="14" lengthAdjust="spacing" textLength="156.6182" x="1338" y="425.5889">-inventory  : Inventory</text><line style="stroke:#FF69B4;stroke-width:0.5;" x1="1333" x2="1560.6631" y1="432.8906" y2="432.8906"/><text fill="#000000" font-family="sans-serif" font-size="14" lengthAdjust="spacing" textLength="179.6484" x="1338" y="449.8857">+BuyOutfit(outfit : Outfit)</text><text fill="#000000" font-family="sans-serif" font-size="14" lengthAdjust="spacing" textLength="202.8701" x="1338" y="466.1826">+ParticipateInFashionShow()</text><text fill="#000000" font-family="sans-serif" font-size="14" lengthAdjust="spacing" textLength="213.917" x="1338" y="482.4795">+CheckLevelComplete() : bool</text><text fill="#000000" font-family="sans-serif" font-size="14" lengthAdjust="spacing" textLength="103.8311" x="1338" y="498.7764">+DrawStatus()</text><text fill="#000000" font-family="sans-serif" font-size="14" lengthAdjust="spacing" textLength="139.0908" x="1338" y="515.0732">+GetMoney() : float</text><text fill="#000000" font-family="sans-serif" font-size="14" lengthAdjust="spacing" textLength="150.7666" x="1338" y="531.3701">+SetMoney(m : float)</text><text fill="#000000" font-family="sans-serif" font-size="14" lengthAdjust="spacing" textLength="195.5078" x="1338" y="547.667">+AddMoney(amount : float)</text><text fill="#000000" font-family="sans-serif" font-size="14" lengthAdjust="spacing" textLength="217.6631" x="1338" y="563.9639">+ResetForNewLevel(level : int)</text><text fill="#000000" font-family="sans-serif" font-size="14" lengthAdjust="spacing" textLength="205.8779" x="1338" y="580.2607">+GetInventory() : Inventory&amp;</text></g><!--class Inventory--><g class="entity" data-entity="Inventory" data-source-line="79" data-uid="ent0008" id="entity_Inventory"><rect fill="#FFC0CB" height="178.375" rx="2.5" ry="2.5" style="stroke:#FF69B4;stroke-width:0.5;" width="295.0898" x="1052.5" y="826"/><ellipse cx="1162.3604" cy="842" fill="#ADD1B2" rx="11" ry="11" style="stroke:#181818;stroke-width:1;"/><path d="M1165.3291,847.6406 Q1164.751,847.9375 1164.1104,848.0781 Q1163.4697,848.2344 1162.7666,848.2344 Q1160.2666,848.2344 1158.9385,846.5938 Q1157.626,844.9375 1157.626,841.8125 Q1157.626,838.6875 1158.9385,837.0313 Q1160.2666,835.375 1162.7666,835.375 Q1163.4697,835.375 1164.1104,835.5313 Q1164.7666,835.6875 1165.3291,835.9844 L1165.3291,838.7031 Q1164.7041,838.125 1164.1104,837.8594 Q1163.5166,837.5781 1162.8916,837.5781 Q1161.5479,837.5781 1160.8604,838.6563 Q1160.1729,839.7188 1160.1729,841.8125 Q1160.1729,843.9063 1160.8604,844.9844 Q1161.5479,846.0469 1162.8916,846.0469 Q1163.5166,846.0469 1164.1104,845.7813 Q1164.7041,845.5 1165.3291,844.9219 L1165.3291,847.6406 Z " fill="#000000"/><text fill="#000000" font-family="sans-serif" font-size="14" lengthAdjust="spacing" textLength="66.8691" x="1182.8604" y="846.8467">Inventory</text><line style="stroke:#FF69B4;stroke-width:0.5;" x1="1053.5" x2="1346.5898" y1="858" y2="858"/><text fill="#000000" font-family="sans-serif" font-size="14" lengthAdjust="spacing" textLength="170.7549" x="1058.5" y="874.9951">-outfits : vector&lt;Outfit&gt;</text><line style="stroke:#FF69B4;stroke-width:0.5;" x1="1053.5" x2="1346.5898" y1="882.2969" y2="882.2969"/><text fill="#000000" font-family="sans-serif" font-size="14" lengthAdjust="spacing" textLength="180.2363" x="1058.5" y="899.292">+AddOutfit(outfit : Outfit)</text><text fill="#000000" font-family="sans-serif" font-size="14" lengthAdjust="spacing" textLength="226.6797" x="1058.5" y="915.5889">+GetOutfits() : vector&lt;Outfit&gt;&amp;</text><text fill="#000000" font-family="sans-serif" font-size="14" lengthAdjust="spacing" textLength="283.0898" x="1058.5" y="931.8857">+GetMutableOutfits() : vector&lt;Outfit&gt;&amp;</text><text fill="#000000" font-family="sans-serif" font-size="14" lengthAdjust="spacing" textLength="170.5908" x="1058.5" y="948.1826">+HasStreetStyle() : bool</text><text fill="#000000" font-family="sans-serif" font-size="14" lengthAdjust="spacing" textLength="104.6445" x="1058.5" y="964.4795">+Size() : size_t</text><text fill="#000000" font-family="sans-serif" font-size="14" lengthAdjust="spacing" textLength="129.1172" x="1058.5" y="980.7764">+TotalScore() : int</text><text fill="#000000" font-family="sans-serif" font-size="14" lengthAdjust="spacing" textLength="59.2676" x="1058.5" y="997.0732">+Clear()</text></g><!--class Outfit--><g class="entity" data-entity="Outfit" data-source-line="91" data-uid="ent0009" id="entity_Outfit"><rect fill="#FFC0CB" height="113.1875" rx="2.5" ry="2.5" style="stroke:#FF69B4;stroke-width:0.5;" width="154.8232" x="1486.5" y="1081"/><ellipse cx="1539.8169" cy="1097" fill="#ADD1B2" rx="11" ry="11" style="stroke:#181818;stroke-width:1;"/><path d="M1542.7856,1102.6406 Q1542.2075,1102.9375 1541.5669,1103.0781 Q1540.9263,1103.2344 1540.2231,1103.2344 Q1537.7231,1103.2344 1536.395,1101.5938 Q1535.0825,1099.9375 1535.0825,1096.8125 Q1535.0825,1093.6875 1536.395,1092.0313 Q1537.7231,1090.375 1540.2231,1090.375 Q1540.9263,1090.375 1541.5669,1090.5313 Q1542.2231,1090.6875 1542.7856,1090.9844 L1542.7856,1093.7031 Q1542.1606,1093.125 1541.5669,1092.8594 Q1540.9731,1092.5781 1540.3481,1092.5781 Q1539.0044,1092.5781 1538.3169,1093.6563 Q1537.6294,1094.7188 1537.6294,1096.8125 Q1537.6294,1098.9063 1538.3169,1099.9844 Q1539.0044,1101.0469 1540.3481,1101.0469 Q1540.9731,1101.0469 1541.5669,1100.7813 Q1542.1606,1100.5 1542.7856,1099.9219 L1542.7856,1102.6406 Z " fill="#000000"/><text fill="#000000" font-family="sans-serif" font-size="14" lengthAdjust="spacing" textLength="39.6895" x="1560.3169" y="1101.8467">Outfit</text><line style="stroke:#FF69B4;stroke-width:0.5;" x1="1487.5" x2="1640.3232" y1="1113" y2="1113"/><text fill="#000000" font-family="sans-serif" font-size="14" lengthAdjust="spacing" textLength="109.6895" x="1492.5" y="1129.9951">+name  : string</text><text fill="#000000" font-family="sans-serif" font-size="14" lengthAdjust="spacing" textLength="91.6426" x="1492.5" y="1146.292">+price : float</text><text fill="#000000" font-family="sans-serif" font-size="14" lengthAdjust="spacing" textLength="81.5254" x="1492.5" y="1162.5889">+score : int</text><text fill="#000000" font-family="sans-serif" font-size="14" lengthAdjust="spacing" textLength="142.8232" x="1492.5" y="1178.8857">+image : Texture2D</text><line style="stroke:#FF69B4;stroke-width:0.5;" x1="1487.5" x2="1640.3232" y1="1186.1875" y2="1186.1875"/></g><!--class OutfitCatalog--><g class="entity" data-entity="OutfitCatalog" data-source-line="98" data-uid="ent0010" id="entity_OutfitCatalog"><rect fill="#FFC0CB" height="178.375" rx="2.5" ry="2.5" style="stroke:#FF69B4;stroke-width:0.5;" width="642.6836" x="1559.5" y="618"/><ellipse cx="1829.8647" cy="634" fill="#ADD1B2" rx="11" ry="11" style="stroke:#181818;stroke-width:1;"/><path d="M1832.8335,639.6406 Q1832.2554,639.9375 1831.6147,640.0781 Q1830.9741,640.2344 1830.271,640.2344 Q1827.771,640.2344 1826.4429,638.5938 Q1825.1304,636.9375 1825.1304,633.8125 Q1825.1304,630.6875 1826.4429,629.0313 Q1827.771,627.375 1830.271,627.375 Q1830.9741,627.375 1831.6147,627.5313 Q1832.271,627.6875 1832.8335,627.9844 L1832.8335,630.7031 Q1832.2085,630.125 1831.6147,629.8594 Q1831.021,629.5781 1830.396,629.5781 Q1829.0522,629.5781 1828.3647,630.6563 Q1827.6772,631.7188 1827.6772,633.8125 Q1827.6772,635.9063 1828.3647,636.9844 Q1829.0522,638.0469 1830.396,638.0469 Q1831.021,638.0469 1831.6147,637.7813 Q1832.2085,637.5 1832.8335,636.9219 L1832.8335,639.6406 Z " fill="#000000"/><text fill="#000000" font-family="sans-serif" font-size="14" lengthAdjust="spacing" textLength="93.4541" x="1850.3647" y="638.8467">OutfitCatalog</text><line style="stroke:#FF69B4;stroke-width:0.5;" x1="1560.5" x2="2201.1836" y1="650" y2="650"/><text fill="#000000" font-family="sans-serif" font-size="14" lengthAdjust="spacing" textLength="170.7549" x="1565.5" y="666.9951">-outfits : vector&lt;Outfit&gt;</text><text fill="#000000" font-family="sans-serif" font-size="14" lengthAdjust="spacing" textLength="210.376" x="1565.5" y="683.292">-buttons : vector&lt;Rectangle&gt;</text><line style="stroke:#FF69B4;stroke-width:0.5;" x1="1560.5" x2="2201.1836" y1="690.5938" y2="690.5938"/><text fill="#000000" font-family="sans-serif" font-size="14" lengthAdjust="spacing" textLength="56.4854" x="1565.5" y="707.5889">+Load()</text><text fill="#000000" font-family="sans-serif" font-size="14" lengthAdjust="spacing" textLength="71.6953" x="1565.5" y="723.8857">+Unload()</text><text fill="#000000" font-family="sans-serif" font-size="14" lengthAdjust="spacing" textLength="59.2197" x="1565.5" y="740.1826">+Draw()</text><text fill="#000000" font-family="sans-serif" font-size="14" lengthAdjust="spacing" textLength="630.6836" x="1565.5" y="756.4795">+HandleClick(mouse : Vector2, money : float&amp;, score : int&amp;, inventory : vector&lt;Outfit&gt;&amp;)</text><text fill="#000000" font-family="sans-serif" font-size="14" lengthAdjust="spacing" textLength="226.6797" x="1565.5" y="772.7764">+GetOutfits() : vector&lt;Outfit&gt;&amp;</text><text fill="#000000" font-family="sans-serif" font-size="14" lengthAdjust="spacing" textLength="264.5645" x="1565.5" y="789.0732">+GetButtons() : vector&lt;Rectangle&gt;&amp;</text></g><!--class Shoe--><g class="entity" data-entity="Shoe" data-source-line="109" data-uid="ent0011" id="entity_Shoe"><rect fill="#FFC0CB" height="129.4844" rx="2.5" ry="2.5" style="stroke:#FF69B4;stroke-width:0.5;" width="194.875" x="2500.5" y="850.5"/><ellipse cx="2576.2183" cy="866.5" fill="#ADD1B2" rx="11" ry="11" style="stroke:#181818;stroke-width:1;"/><path d="M2579.187,872.1406 Q2578.6089,872.4375 2577.9683,872.5781 Q2577.3276,872.7344 2576.6245,872.7344 Q2574.1245,872.7344 2572.7964,871.0938 Q2571.4839,869.4375 2571.4839,866.3125 Q2571.4839,863.1875 2572.7964,861.5313 Q2574.1245,859.875 2576.6245,859.875 Q2577.3276,859.875 2577.9683,860.0313 Q2578.6245,860.1875 2579.187,860.4844 L2579.187,863.2031 Q2578.562,862.625 2577.9683,862.3594 Q2577.3745,862.0781 2576.7495,862.0781 Q2575.4058,862.0781 2574.7183,863.1563 Q2574.0308,864.2188 2574.0308,866.3125 Q2574.0308,868.4063 2574.7183,869.4844 Q2575.4058,870.5469 2576.7495,870.5469 Q2577.3745,870.5469 2577.9683,870.2813 Q2578.562,870 2579.187,869.4219 L2579.187,872.1406 Z " fill="#000000"/><text fill="#000000" font-family="sans-serif" font-size="14" lengthAdjust="spacing" textLength="34.9385" x="2596.7183" y="871.3467">Shoe</text><line style="stroke:#FF69B4;stroke-width:0.5;" x1="2501.5" x2="2694.375" y1="882.5" y2="882.5"/><text fill="#000000" font-family="sans-serif" font-size="14" lengthAdjust="spacing" textLength="149.7412" x="2506.5" y="899.4951">+name           : string</text><text fill="#000000" font-family="sans-serif" font-size="14" lengthAdjust="spacing" textLength="169.8594" x="2506.5" y="915.792">+matchesOutfit  : string</text><text fill="#000000" font-family="sans-serif" font-size="14" lengthAdjust="spacing" textLength="131.6943" x="2506.5" y="932.0889">+price          : float</text><text fill="#000000" font-family="sans-serif" font-size="14" lengthAdjust="spacing" textLength="121.5771" x="2506.5" y="948.3857">+score          : int</text><text fill="#000000" font-family="sans-serif" font-size="14" lengthAdjust="spacing" textLength="182.875" x="2506.5" y="964.6826">+image          : Texture2D</text><line style="stroke:#FF69B4;stroke-width:0.5;" x1="2501.5" x2="2694.375" y1="971.9844" y2="971.9844"/></g><!--class ShoeCatalog--><g class="entity" data-entity="ShoeCatalog" data-source-line="117" data-uid="ent0012" id="entity_ShoeCatalog"><rect fill="#FFC0CB" height="178.375" rx="2.5" ry="2.5" style="stroke:#FF69B4;stroke-width:0.5;" width="637.9326" x="2279" y="377"/><ellipse cx="2549.3647" cy="393" fill="#ADD1B2" rx="11" ry="11" style="stroke:#181818;stroke-width:1;"/><path d="M2552.3335,398.6406 Q2551.7554,398.9375 2551.1147,399.0781 Q2550.4741,399.2344 2549.771,399.2344 Q2547.271,399.2344 2545.9429,397.5938 Q2544.6304,395.9375 2544.6304,392.8125 Q2544.6304,389.6875 2545.9429,388.0313 Q2547.271,386.375 2549.771,386.375 Q2550.4741,386.375 2551.1147,386.5313 Q2551.771,386.6875 2552.3335,386.9844 L2552.3335,389.7031 Q2551.7085,389.125 2551.1147,388.8594 Q2550.521,388.5781 2549.896,388.5781 Q2548.5522,388.5781 2547.8647,389.6563 Q2547.1772,390.7188 2547.1772,392.8125 Q2547.1772,394.9063 2547.8647,395.9844 Q2548.5522,397.0469 2549.896,397.0469 Q2550.521,397.0469 2551.1147,396.7813 Q2551.7085,396.5 2552.3335,395.9219 L2552.3335,398.6406 Z " fill="#000000"/><text fill="#000000" font-family="sans-serif" font-size="14" lengthAdjust="spacing" textLength="88.7031" x="2569.8647" y="397.8467">ShoeCatalog</text><line style="stroke:#FF69B4;stroke-width:0.5;" x1="2280" x2="2915.9326" y1="409" y2="409"/><text fill="#000000" font-family="sans-serif" font-size="14" lengthAdjust="spacing" textLength="171.0146" x="2285" y="425.9951">-shoes   : vector&lt;Shoe&gt;</text><text fill="#000000" font-family="sans-serif" font-size="14" lengthAdjust="spacing" textLength="210.376" x="2285" y="442.292">-buttons : vector&lt;Rectangle&gt;</text><line style="stroke:#FF69B4;stroke-width:0.5;" x1="2280" x2="2915.9326" y1="449.5938" y2="449.5938"/><text fill="#000000" font-family="sans-serif" font-size="14" lengthAdjust="spacing" textLength="56.4854" x="2285" y="466.5889">+Load()</text><text fill="#000000" font-family="sans-serif" font-size="14" lengthAdjust="spacing" textLength="71.6953" x="2285" y="482.8857">+Unload()</text><text fill="#000000" font-family="sans-serif" font-size="14" lengthAdjust="spacing" textLength="59.2197" x="2285" y="499.1826">+Draw()</text><text fill="#000000" font-family="sans-serif" font-size="14" lengthAdjust="spacing" textLength="625.9326" x="2285" y="515.4795">+HandleClick(mouse : Vector2, money : float&amp;, score : int&amp;, inventory : vector&lt;Shoe&gt;&amp;)</text><text fill="#000000" font-family="sans-serif" font-size="14" lengthAdjust="spacing" textLength="217.1777" x="2285" y="531.7764">+GetShoes() : vector&lt;Shoe&gt;&amp;</text><text fill="#000000" font-family="sans-serif" font-size="14" lengthAdjust="spacing" textLength="264.5645" x="2285" y="548.0732">+GetButtons() : vector&lt;Rectangle&gt;&amp;</text></g><g class="entity" data-entity="N1" data-source-line="129" data-uid="ent0013" id="entity_N1"><path d="M1472.5,124.5 L1472.5,149.6328 A0,0 0 0 0 1472.5,149.6328 L1591.52,149.6328 L1504.12,343.72 L1599.52,149.6328 L1729.8296,149.6328 A0,0 0 0 0 1729.8296,149.6328 L1729.8296,134.5 L1719.8296,124.5 L1472.5,124.5 A0,0 0 0 0 1472.5,124.5" fill="#FEFFDD" style="stroke:#181818;stroke-width:0.5;"/><path d="M1719.8296,124.5 L1719.8296,134.5 L1729.8296,134.5 L1719.8296,124.5" fill="#FEFFDD" style="stroke:#181818;stroke-width:0.5;"/><text fill="#000000" font-family="sans-serif" font-size="13" lengthAdjust="spacing" textLength="236.3296" x="1478.5" y="141.5669">RunFashionShow(game : GamePlay)</text></g><g class="entity" data-entity="N2" data-source-line="130" data-uid="ent0014" id="entity_N2"><path d="M2082.5,109.5 L2082.5,164.8984 L2369.7969,164.8984 L2369.7969,119.5 L2359.7969,109.5 L2082.5,109.5" fill="#FEFFDD" style="stroke:#181818;stroke-width:0.5;"/><path d="M2359.7969,109.5 L2359.7969,119.5 L2369.7969,119.5 L2359.7969,109.5" fill="#FEFFDD" style="stroke:#181818;stroke-width:1;"/><text fill="#000000" font-family="sans-serif" font-size="13" lengthAdjust="spacing" textLength="266.2969" x="2088.5" y="126.5669">RunFinalFashionShow(game : GamePlay,</text><text fill="#000000" font-family="sans-serif" font-size="13" lengthAdjust="spacing" textLength="157.9995" x="2175.2788" y="141.6997">outfits : vector&lt;Outfit&gt;,</text><text fill="#000000" font-family="sans-serif" font-size="13" lengthAdjust="spacing" textLength="159.1802" x="2175.2788" y="156.8325">shoes   : vector&lt;Shoe&gt;)</text></g><!--class Texture2D--><g class="entity" data-entity="Texture2D" data-source-line="146" data-uid="ent0025" id="entity_Texture2D"><rect fill="#FFC0CB" height="48" rx="2.5" ry="2.5" style="stroke:#FF69B4;stroke-width:0.5;" width="105.8691" x="513" y="442"/><ellipse cx="528" cy="458" fill="#ADD1B2" rx="11" ry="11" style="stroke:#181818;stroke-width:1;"/><path d="M530.9688,463.6406 Q530.3906,463.9375 529.75,464.0781 Q529.1094,464.2344 528.4063,464.2344 Q525.9063,464.2344 524.5781,462.5938 Q523.2656,460.9375 523.2656,457.8125 Q523.2656,454.6875 524.5781,453.0313 Q525.9063,451.375 528.4063,451.375 Q529.1094,451.375 529.75,451.5313 Q530.4063,451.6875 530.9688,451.9844 L530.9688,454.7031 Q530.3438,454.125 529.75,453.8594 Q529.1563,453.5781 528.5313,453.5781 Q527.1875,453.5781 526.5,454.6563 Q525.8125,455.7188 525.8125,457.8125 Q525.8125,459.9063 526.5,460.9844 Q527.1875,462.0469 528.5313,462.0469 Q529.1563,462.0469 529.75,461.7813 Q530.3438,461.5 530.9688,460.9219 L530.9688,463.6406 Z " fill="#000000"/><text fill="#000000" font-family="sans-serif" font-size="14" lengthAdjust="spacing" textLength="73.8691" x="542" y="462.8467">Texture2D</text><line style="stroke:#FF69B4;stroke-width:0.5;" x1="514" x2="617.8691" y1="474" y2="474"/><line style="stroke:#FF69B4;stroke-width:0.5;" x1="514" x2="617.8691" y1="482" y2="482"/></g><!--link GameManager to GamePlay--><g class="link" data-entity-1="GameManager" data-entity-2="GamePlay" data-source-line="133" data-uid="lnk15" id="link_GameManager_GamePlay"><path codeLine="133" d="M1784.83,234.56 C1772.4,245.84 1759.61,256.91 1747,267 C1688.77,313.59 1624.6176,356.6334 1567.3376,392.6934" fill="none" id="GameManager-to-GamePlay" style="stroke:#FF1493;stroke-width:1;"/><polygon fill="#FF1493" points="1562.26,395.89,1572.0074,394.4802,1566.4913,393.2262,1567.7454,387.7101,1562.26,395.89" style="stroke:#FF1493;stroke-width:1;"/><text fill="#000000" font-family="sans-serif" font-size="13" lengthAdjust="spacing" textLength="33.5981" x="1701" y="310.0669">owns</text></g><!--link GameManager to OutfitCatalog--><g class="link" data-entity-1="GameManager" data-entity-2="OutfitCatalog" data-source-line="134" data-uid="lnk16" id="link_GameManager_OutfitCatalog"><path codeLine="134" d="M1881,234.68 C1881,342.03 1881,507.85 1881,611.7" fill="none" id="GameManager-to-OutfitCatalog" style="stroke:#FF1493;stroke-width:1;"/><polygon fill="#FF1493" points="1881,617.7,1885,608.7,1881,612.7,1877,608.7,1881,617.7" style="stroke:#FF1493;stroke-width:1;"/><text fill="#000000" font-family="sans-serif" font-size="13" lengthAdjust="spacing" textLength="29.7832" x="1882" y="310.0669">uses</text></g><!--link GamePlay to Inventory--><g class="link" data-entity-1="GamePlay" data-entity-2="Inventory" data-source-line="135" data-uid="lnk17" id="link_GamePlay_Inventory"><path codeLine="135" d="M1374.02,588.26 C1368.2,598.28 1362.46,608.29 1357,618 C1318.06,687.2 1278.7775,761.4364 1248.0075,820.6264" fill="none" id="GamePlay-to-Inventory" style="stroke:#FF1493;stroke-width:1;"/><polygon fill="#FF1493" points="1245.24,825.95,1252.9403,819.8096,1247.5462,821.5136,1245.8422,816.1196,1245.24,825.95" style="stroke:#FF1493;stroke-width:1;"/><text fill="#000000" font-family="sans-serif" font-size="13" lengthAdjust="spacing" textLength="33.5981" x="1358" y="711.5669">owns</text></g><!--link Inventory to Outfit--><g class="link" data-entity-1="Inventory" data-entity-2="Outfit" data-source-line="136" data-uid="lnk18" id="link_Inventory_Outfit"><path codeLine="136" d="M1277.13,1004.27 C1294.92,1021.32 1314.65,1037.92 1335,1051 C1381.58,1080.95 1434.4379,1100.8397 1480.6979,1114.8597" fill="none" id="Inventory-to-Outfit" style="stroke:#FF1493;stroke-width:1;"/><polygon fill="#FF1493" points="1486.44,1116.6,1478.987,1110.1616,1481.6549,1115.1498,1476.6667,1117.8177,1486.44,1116.6" style="stroke:#FF1493;stroke-width:1;"/><text fill="#000000" font-family="sans-serif" font-size="13" lengthAdjust="spacing" textLength="55.0278" x="1336" y="1047.0669">contains</text></g><!--link GamePlay to Outfit--><g class="link" data-entity-1="GamePlay" data-entity-2="Outfit" data-source-line="137" data-uid="lnk19" id="link_GamePlay_Outfit"><path codeLine="137" d="M1440.89,588.14 C1440.53,598.24 1440.22,608.29 1440,618 C1438.17,697.09 1426.26,718.09 1440,796 C1458.42,900.4 1503.7888,1009.4354 1534.3788,1075.4954" fill="none" id="GamePlay-to-Outfit" style="stroke:#FF1493;stroke-width:1;"/><polygon fill="#FF1493" points="1536.9,1080.94,1536.7479,1071.0923,1534.799,1076.4028,1529.4885,1074.4539,1536.9,1080.94" style="stroke:#FF1493;stroke-width:1;"/><text fill="#000000" font-family="sans-serif" font-size="13" lengthAdjust="spacing" textLength="66.7329" x="1504" y="919.5669">purchases</text></g><!--link GamePlay to Shoe--><g class="link" data-entity-1="GamePlay" data-entity-2="Shoe" data-source-line="138" data-uid="lnk20" id="link_GamePlay_Shoe"><path codeLine="138" d="M1445.76,588.19 C1446.11,675.62 1449.6,780.83 1464,796 C1534.82,870.61 2232.3436,901.6413 2494.3536,910.7613" fill="none" id="GamePlay-to-Shoe" style="stroke:#FF1493;stroke-width:1;"/><polygon fill="#FF1493" points="2500.35,910.97,2491.4946,906.6593,2495.353,910.7961,2491.2163,914.6545,2500.35,910.97" style="stroke:#FF1493;stroke-width:1;"/><text fill="#000000" font-family="sans-serif" font-size="13" lengthAdjust="spacing" textLength="76.6543" x="1465" y="711.5669">via Screen4</text></g><!--link Screen2 to GamePlay--><g class="link" data-entity-1="Screen2" data-entity-2="GamePlay" data-source-line="140" data-uid="lnk21" id="link_Screen2_GamePlay"><path codeLine="140" d="M871.7,201.65 C909.59,223.24 952.77,246.96 993,267 C1106.14,323.36 1233.504,377.9906 1326.164,416.2406" fill="none" id="Screen2-to-GamePlay" style="stroke:#FF1493;stroke-width:1;"/><polygon fill="#FF1493" points="1331.71,418.53,1324.9172,411.3985,1327.0883,416.6222,1321.8647,418.7933,1331.71,418.53" style="stroke:#FF1493;stroke-width:1;"/><text fill="#000000" font-family="sans-serif" font-size="13" lengthAdjust="spacing" textLength="46.4966" x="1092" y="310.0669">pointer</text></g><!--link Screen4 to GamePlay--><g class="link" data-entity-1="Screen4" data-entity-2="GamePlay" data-source-line="141" data-uid="lnk22" id="link_Screen4_GamePlay"><path codeLine="141" d="M1273.21,210.17 C1299.96,249.38 1330.3598,293.9628 1361.0098,338.9128" fill="none" id="Screen4-to-GamePlay" style="stroke:#FF1493;stroke-width:1;"/><polygon fill="#FF1493" points="1364.39,343.87,1362.6245,334.1807,1361.5732,339.739,1356.0149,338.6876,1364.39,343.87" style="stroke:#FF1493;stroke-width:1;"/><text fill="#000000" font-family="sans-serif" font-size="13" lengthAdjust="spacing" textLength="46.4966" x="1344" y="310.0669">pointer</text></g><!--link OutfitCatalog to Outfit--><g class="link" data-entity-1="OutfitCatalog" data-entity-2="Outfit" data-source-line="143" data-uid="lnk23" id="link_OutfitCatalog_Outfit"><path codeLine="143" d="M1815.89,796.01 C1752.66,881.48 1662.1584,1003.8165 1608.6784,1076.1065" fill="none" id="OutfitCatalog-to-Outfit" style="stroke:#FF1493;stroke-width:1;"/><polygon fill="#FF1493" points="1605.11,1080.93,1613.6783,1076.0737,1608.0837,1076.9104,1607.247,1071.3158,1605.11,1080.93" style="stroke:#FF1493;stroke-width:1;"/></g><!--link ShoeCatalog to Shoe--><g class="link" data-entity-1="ShoeCatalog" data-entity-2="Shoe" data-source-line="144" data-uid="lnk24" id="link_ShoeCatalog_Shoe"><path codeLine="144" d="M2598,555.05 C2598,642.03 2598,766.97 2598,844.33" fill="none" id="ShoeCatalog-to-Shoe" style="stroke:#FF1493;stroke-width:1;"/><polygon fill="#FF1493" points="2598,850.33,2602,841.33,2598,845.33,2594,841.33,2598,850.33" style="stroke:#FF1493;stroke-width:1;"/></g><!--link MainScreen to Texture2D--><g class="link" data-entity-1="MainScreen" data-entity-2="Texture2D" data-source-line="146" data-uid="lnk26" id="link_MainScreen_Texture2D"><path codeLine="146" d="M461.98,267.24 C496.35,332.58 531.9367,400.2499 551.0367,436.5599" fill="none" id="MainScreen-to-Texture2D" style="stroke:#FF1493;stroke-width:1;"/><polygon fill="#FF1493" points="553.83,441.87,553.1802,432.0426,551.5023,437.4449,546.1,435.767,553.83,441.87" style="stroke:#FF1493;stroke-width:1;"/></g><!--link Screen1 to Texture2D--><g class="link" data-entity-1="Screen1" data-entity-2="Texture2D" data-source-line="147" data-uid="lnk27" id="link_Screen1_Texture2D"><path codeLine="147" d="M180.64,201.52 C202.48,223.34 227.99,247.23 253,267 C343.79,338.78 456.4067,404.5931 518.3867,439.0731" fill="none" id="Screen1-to-Texture2D" style="stroke:#FF1493;stroke-width:1;"/><polygon fill="#FF1493" points="523.63,441.99,517.7097,434.1192,519.2606,439.5593,513.8205,441.1102,523.63,441.99" style="stroke:#FF1493;stroke-width:1;"/></g><!--link Screen2 to Texture2D--><g class="link" data-entity-1="Screen2" data-entity-2="Texture2D" data-source-line="148" data-uid="lnk28" id="link_Screen2_Texture2D"><path codeLine="148" d="M725.35,201.83 C680.79,275.43 612.9375,387.4774 583.0775,436.7974" fill="none" id="Screen2-to-Texture2D" style="stroke:#FF1493;stroke-width:1;"/><polygon fill="#FF1493" points="579.97,441.93,588.0529,436.3027,582.5595,437.6528,581.2094,432.1594,579.97,441.93" style="stroke:#FF1493;stroke-width:1;"/></g><!--link Screen4 to Texture2D--><g class="link" data-entity-1="Screen4" data-entity-2="Texture2D" data-source-line="149" data-uid="lnk29" id="link_Screen4_Texture2D"><path codeLine="149" d="M1096.36,210.12 C1062.84,228.83 1026.64,248.83 993,267 C953.3,288.45 943.61,294.32 903,314 C803.91,362.02 691.602,411.1997 624.792,439.9297" fill="none" id="Screen4-to-Texture2D" style="stroke:#FF1493;stroke-width:1;"/><polygon fill="#FF1493" points="619.28,442.3,629.1281,442.4192,623.8733,440.3248,625.9678,435.0699,619.28,442.3" style="stroke:#FF1493;stroke-width:1;"/></g><!--link N2 to GamePlay--><g class="link" data-entity-1="N2" data-entity-2="GamePlay" data-source-line="152" data-uid="lnk31" id="link_N2_GamePlay"><path codeLine="152" d="M2185.01,164.57 C2142.96,191.46 2075.34,233.72 2015,267 C1867.55,348.34 1686.2995,404.2217 1568.0295,435.5917" fill="none" id="N2-to-GamePlay" style="stroke:#FF1493;stroke-width:1;stroke-dasharray:7.0,7.0;"/><polygon fill="#FF1493" points="1562.23,437.13,1571.9547,438.6889,1567.0629,435.8481,1569.9037,430.9563,1562.23,437.13" style="stroke:#FF1493;stroke-width:1;"/></g><!--link N2 to Outfit--><g class="link" data-entity-1="N2" data-entity-2="Outfit" data-source-line="153" data-uid="lnk32" id="link_N2_Outfit"><path codeLine="153" d="M2228.56,164.78 C2238.53,274.45 2270.99,688.59 2204,796 C2076.62,1000.24 1788.2204,1088.0186 1647.5204,1120.0386" fill="none" id="N2-to-Outfit" style="stroke:#FF1493;stroke-width:1;stroke-dasharray:7.0,7.0;"/><polygon fill="#FF1493" points="1641.67,1121.37,1651.3332,1123.2732,1646.5453,1120.2605,1649.558,1115.4726,1641.67,1121.37" style="stroke:#FF1493;stroke-width:1;"/></g><!--link N2 to Shoe--><g class="link" data-entity-1="N2" data-entity-2="Shoe" data-source-line="154" data-uid="lnk33" id="link_N2_Shoe"><path codeLine="154" d="M2369.8,159.22 C2556.68,190.07 2867.18,253.67 2935,344 C3000.11,430.72 2977.33,488.16 2935,588 C2886.7,701.92 2781.8543,792.0234 2700.6543,849.2534" fill="none" id="N2-to-Shoe" style="stroke:#FF1493;stroke-width:1;stroke-dasharray:7.0,7.0;"/><polygon fill="#FF1493" points="2695.75,852.71,2705.4108,850.7947,2699.8369,849.8295,2700.8021,844.2556,2695.75,852.71" style="stroke:#FF1493;stroke-width:1;"/></g><!--SRC=[pLTRQ-Gs57xthn3xC3lP9DjcoDDI0icakS3cGfpjKw5ex9E965aoaZpfjBJaBnJwkFrp-IKzkjYMFSu5mh890x7EEPO-VUVgz-JXttl_8nUbOL9GJhHPSIRchUex_XAzOAAaYXOaurJhVMCKcrK6JZCfKlO7a1_x9aTI6AVPsOrK-qh9kwdaKf53WFAIYKMadTeN3wJAGNcR4sa6JMYsc2jPYToREPltRuAfrn8TNuDCfG9oev39X_j_GEH4Pmf0U891VyCB9-u8SaQPIFsPVoQ4R7CvboJyVIBNyBkf54mEhIhZB5karYTMvHwikEHqTL0P8uKLNq5cg9Xpi2fjg3B7j02tsKnAZjBDMUFR_X6RBPhnXbt_tHTybZJtJry4RvuF5RtpJoTKv1oc5kcua9K6FE4NX2JLnEdJMrdnFArnZJSYN2cODkp6itaCRYFvAmcCUJWxZgvD3alWxLlz-yoecZ58MGv3Z3vzczw14tzWM8pdYDuoZrlQYrpYuuSjab6bLXTBK6TIWDNTuBRcHSnvPgOOYKnK4J4z6BinZ5q7emkXY4yURM50sn3_H9WmerS1GTKnc1GukXDoj0Bjb4ldtf-iOC-YZTFhk6PfH0egw1mA4EOxL950eOLpvd2e43uXstfnaL53KONYYyhSC3FrQwl2eg2nUqISrvpkOy4mEcOsbbX-lvo-B4ckrUfdOK0TKNsBPo6pmJMd-hEDzwaiIWvcA4XgKBwO-5W8aUy2mbK55n51Yc5XPKmiqJDIhQpij5xOCm-gbITXBDs_XXI7w18JcMMifDYen1hUwIraYqSW1qwm59WgS8JXvVB66TLmRLdmqgAJJ_jvxiKKAHIcexi29Fv8gdEuSwUFNPdmjwrFQYxfJcjMevRBHkR9zDVNRSHx6lO2c2T8mjFygfCmuVLHVVFAq1c7PmnFg4uDfhv9SNRfbKyS1Pn0uyDlZhfhYN6RMdSxXVVrvfG3LRx0nRbwA0iizWIlp0p3rZSY8GsgRze7s-pqz_I9ALpJmhlW52HSufMAPH37HLJOx98LcDQTH6uSsKdYPvsvFNFDDD8rFNNlbItmwUgyHTeiN7F-omF9pm8TY_O2KNZRWXsJJTgnesMze2Qx1HrSC-2GwAsUPo9DnqLaQBpfeEfuIjj6uwmxZUQj-ScXQhmqt1rVxg4uBq-0bzYlVY0tbSZibmjvkFyQvjE7-__8E9TPPVigv8Hg8gG1lV5CmYRMYhoxgZerkpTCRBop-vtlHCOCFvkUU6FhLq66_XxBjiViXtqUy4owz5m1fvOL15NgD_I1aiJ31jdUtcjxSnF_yaxeTRjkkR9s69pUhddTshNzgRDVHzpk5-STVb8QhFK3UwxRbfNARkaW05T1EeLZoMWzfoP9FJStzki4b9BPGIUfPziNc2PTUbhGILmwMe194drYMM5RTEelYM3TLqmUK-okAvBp7VBnOuixEPyChWFKiBBu_WS0]--></g></svg>